<svg id="Capa_1" enable-background="new 0 0 512 512" height="512" viewBox="0 0 512 512" width="512" xmlns="http://www.w3.org/2000/svg" xmlns:xlink="http://www.w3.org/1999/xlink"><linearGradient id="SVGID_1_" gradientUnits="userSpaceOnUse" x1="0" x2="512" y1="256" y2="256"><stop offset="0" stop-color="#80d8ff"/><stop offset="1" stop-color="#ea80fc"/></linearGradient><path d="m486.103 140.651c-79.746-49.698-89.067-74.638-138.558-74.638-46.512 0-85.924 31.797-97.732 74.889l-223.578-73.884c-12.905-4.262-26.228 5.392-26.228 19.047 0 82.291 41.889 190.517 135.351 238.649-34.821 20.448-74.121 31.121-115.371 31.121-19.236 0-27.339 24.75-11.846 36.199 47.771 35.305 104.441 53.966 163.882 53.966 131.9 0 245.083-93.553 271.263-222.323l59.201-39.104c19.004-12.553 7.469-29.055-16.384-43.922zm-71.873 54.207c-4.625 3.056-7.779 7.899-8.711 13.377-19.131 112.489-116.735 197.661-233.496 197.661-30.977 0-61.073-5.923-89.101-17.376 38.259-9.197 74.645-26.885 106.378-52.625 12.316-9.989 8.675-29.75-6.38-34.664-83.388-27.215-128.007-99.84-140.403-186.61l217.411 71.845c12.902 4.26 26.172-5.36 26.238-18.95.164-33.856 27.698-61.4 61.379-61.4 13.585 0 26.452 4.374 37.214 12.647v.001c33.133 25.474 53.812 39.263 69.847 49.425z" fill="url(#SVGID_1_)"/></svg>